<?xml version="1.0" standalone="no"?>
<!DOCTYPE svg PUBLIC "-//W3C//DTD SVG 20010904//EN"
 "http://www.w3.org/TR/2001/REC-SVG-20010904/DTD/svg10.dtd">
<svg version="1.0" xmlns="http://www.w3.org/2000/svg"
 width="1164.000000pt" height="1164.000000pt" viewBox="0 0 1164.000000 1164.000000"
 preserveAspectRatio="xMidYMid meet">
<metadata>
Created by potrace 1.11, written by Peter Selinger 2001-2013
</metadata>
<g transform="translate(0.000000,1164.000000) scale(0.100000,-0.100000)"
fill="#000000" stroke="none">
<path d="M4825 10262 c-16 -31 -33 -58 -37 -60 -5 -2 -8 -12 -8 -22 0 -10 -3
-20 -7 -22 -5 -1 -15 -17 -24 -34 -9 -17 -34 -64 -55 -105 -21 -41 -41 -76
-44 -79 -3 -3 -18 -32 -35 -65 -16 -33 -49 -95 -73 -138 -23 -43 -62 -115 -86
-160 -24 -45 -60 -113 -81 -152 -21 -38 -52 -97 -69 -130 -17 -33 -33 -62 -36
-65 -3 -3 -16 -27 -30 -55 -14 -27 -28 -51 -32 -53 -5 -2 -8 -10 -8 -19 0 -8
-8 -27 -18 -41 -10 -15 -63 -110 -117 -212 -95 -180 -120 -226 -182 -340 -17
-30 -53 -98 -81 -150 -28 -52 -61 -115 -75 -140 -13 -25 -40 -74 -58 -110 -18
-36 -36 -67 -39 -70 -3 -3 -23 -41 -45 -85 -22 -44 -43 -82 -46 -85 -3 -3 -41
-72 -84 -155 -43 -82 -82 -153 -87 -156 -5 -3 -9 -9 -9 -13 2 -8 -60 -130 -69
-136 -6 -4 -21 -36 -24 -50 -1 -3 -18 -34 -38 -70 -62 -113 -100 -182 -146
-270 -24 -47 -54 -103 -67 -125 -13 -22 -41 -74 -62 -115 -41 -78 -104 -195
-156 -290 -17 -30 -46 -84 -65 -120 -19 -36 -51 -96 -72 -135 -21 -38 -53 -99
-71 -135 -19 -36 -36 -67 -39 -70 -3 -3 -25 -43 -49 -90 -24 -47 -49 -88 -55
-92 -6 -4 -7 -8 -2 -8 4 0 2 -10 -6 -22 -8 -13 -37 -63 -63 -113 -26 -49 -52
-96 -58 -102 -5 -7 -6 -13 -1 -13 5 0 4 -4 -1 -8 -6 -4 -23 -32 -40 -62 -16
-30 -48 -91 -72 -135 -24 -44 -56 -105 -71 -135 -14 -30 -29 -57 -33 -60 -3
-3 -37 -66 -77 -140 -39 -74 -82 -155 -95 -180 -14 -25 -38 -70 -54 -100 -36
-67 -115 -215 -156 -290 -16 -30 -39 -73 -50 -95 -11 -22 -24 -43 -29 -46 -5
-3 -9 -8 -7 -10 2 -4 -28 -66 -63 -127 -21 -38 -63 -115 -138 -257 -23 -44
-50 -93 -60 -110 -10 -16 -40 -73 -67 -125 -28 -52 -65 -122 -83 -155 -18 -33
-44 -82 -58 -110 -15 -27 -27 -51 -28 -53 -1 -2 -51 -5 -111 -7 -138 -4 -179
-10 -283 -41 -111 -33 -287 -123 -312 -159 -4 -5 -8 -7 -8 -2 0 15 -146 -124
-190 -182 -14 -18 -31 -39 -37 -46 -7 -8 -13 -17 -13 -21 0 -4 -6 -15 -14 -23
-7 -9 -26 -41 -42 -71 -91 -171 -127 -332 -119 -527 2 -65 6 -125 8 -133 2 -8
7 -33 11 -55 10 -51 49 -161 81 -229 116 -246 337 -439 607 -532 38 -12 68
-21 68 -18 0 3 8 0 18 -5 29 -16 111 -24 242 -24 140 0 191 7 325 47 53 16
225 98 225 108 0 4 6 8 13 8 7 0 23 10 37 23 14 12 41 34 60 48 46 35 170 164
170 178 0 4 9 17 21 30 17 18 120 205 118 214 0 1 2 9 5 17 22 68 28 91 48
180 15 67 16 265 2 340 -24 128 -54 230 -67 230 -6 0 -8 3 -4 6 9 9 -71 160
-108 202 l-19 23 39 77 c22 42 43 79 48 80 4 2 7 7 7 12 0 5 33 69 72 142 40
73 72 136 70 141 -1 4 2 7 7 7 5 0 13 9 16 20 3 11 26 55 49 98 39 70 117 216
170 317 12 22 23 42 26 45 3 3 20 34 38 70 69 133 86 165 91 170 4 3 17 28 31
55 13 28 35 67 47 88 13 20 21 37 17 37 -3 0 4 13 15 29 12 16 21 32 21 36 0
4 9 20 21 36 11 16 17 29 13 29 -4 0 0 8 8 18 8 9 23 36 34 60 10 23 21 42 26
42 4 0 8 6 8 13 0 6 8 25 19 40 l18 28 28 -53 c34 -66 88 -147 119 -181 13
-14 21 -28 18 -31 -3 -3 1 -6 10 -6 8 0 20 -10 27 -22 7 -13 44 -48 82 -78 39
-30 77 -61 85 -68 8 -7 14 -10 14 -6 0 4 8 0 18 -8 30 -27 157 -88 227 -109
22 -6 51 -15 65 -20 72 -23 358 -34 440 -16 116 25 186 49 272 92 37 19 68 31
68 26 0 -5 -15 -35 -33 -68 -18 -32 -41 -74 -50 -93 -10 -19 -43 -80 -73 -135
-30 -55 -65 -120 -77 -145 -12 -25 -24 -47 -27 -50 -3 -3 -14 -23 -26 -45 -60
-115 -128 -241 -134 -248 -4 -4 -49 -9 -101 -12 -52 -2 -106 -6 -121 -9 -16
-3 -38 -8 -50 -10 -22 -4 -115 -31 -148 -42 -8 -3 -16 -5 -17 -5 -8 2 -159
-83 -161 -90 -2 -5 -7 -7 -12 -4 -4 2 -15 -4 -25 -15 -10 -11 -22 -20 -27 -20
-18 0 -156 -133 -208 -200 -19 -25 -37 -47 -40 -50 -31 -29 -135 -256 -145
-315 -2 -11 -10 -49 -18 -85 -8 -36 -14 -86 -13 -113 0 -26 -1 -47 -4 -47 -3
0 -5 -17 -3 -37 1 -21 3 -62 5 -90 2 -29 5 -53 8 -53 3 0 6 -15 6 -33 2 -54
53 -205 100 -295 39 -74 55 -99 114 -176 23 -30 137 -146 144 -146 5 0 22 -13
70 -55 7 -5 21 -15 31 -21 11 -6 40 -22 65 -36 90 -50 225 -96 330 -114 60
-10 273 -10 330 -1 142 25 293 83 393 151 21 14 40 26 42 26 23 0 212 192 259
264 74 112 141 270 161 381 3 17 8 46 11 65 8 45 8 222 1 275 -14 91 -39 188
-64 245 -47 105 -61 132 -108 201 l-52 76 22 44 c24 48 66 126 108 200 15 26
44 80 65 120 116 222 166 315 171 319 4 3 21 34 39 70 50 103 110 214 120 226
5 6 13 21 17 35 4 13 11 26 15 29 3 3 38 66 77 140 107 204 108 205 113 210 5
5 16 26 93 175 23 44 44 82 47 85 3 3 22 37 41 75 76 147 94 180 102 183 4 2
7 12 7 22 0 10 3 20 8 22 4 2 23 33 42 70 19 37 44 84 55 105 63 118 75 143
74 150 0 3 6 10 14 15 9 4 18 22 22 38 4 17 10 30 15 30 8 0 33 54 30 66 -1 4
2 10 7 13 5 3 31 47 58 96 27 50 56 104 65 120 9 17 45 84 80 150 34 66 69
128 78 138 8 9 12 17 7 17 -4 0 0 11 8 24 15 22 51 87 122 221 17 33 48 89 67
125 19 36 59 110 89 165 29 55 68 127 86 160 18 33 47 88 65 123 18 34 35 62
38 62 3 0 13 -20 24 -43 10 -23 34 -76 53 -117 20 -41 58 -124 85 -185 28 -60
63 -136 78 -167 16 -31 26 -58 24 -61 -3 -2 2 -10 11 -17 8 -7 15 -19 15 -27
0 -8 11 -34 25 -59 14 -25 25 -51 25 -59 0 -8 4 -15 10 -15 5 0 9 -3 8 -7 -1
-5 11 -35 27 -68 15 -33 29 -62 30 -65 6 -18 31 -71 84 -183 34 -70 61 -130
61 -132 0 -2 22 -50 49 -107 97 -205 158 -341 157 -349 -1 -4 8 -16 18 -28 11
-12 16 -21 13 -21 -3 0 7 -26 22 -57 16 -32 39 -80 51 -108 13 -27 36 -79 53
-115 16 -36 42 -92 57 -125 15 -33 44 -96 65 -140 21 -44 51 -109 67 -145 16
-36 45 -96 63 -135 40 -87 76 -163 108 -235 13 -30 43 -95 67 -145 23 -49 52
-112 65 -140 13 -27 36 -77 51 -110 15 -33 29 -62 29 -65 1 -3 18 -39 37 -80
19 -41 35 -77 35 -80 1 -3 16 -36 36 -75 51 -103 127 -265 127 -272 0 -3 22
-51 49 -107 27 -55 59 -123 71 -151 12 -27 45 -97 71 -154 27 -57 49 -104 49
-106 0 -2 22 -49 49 -106 26 -57 58 -124 69 -149 11 -25 39 -85 62 -135 23
-49 53 -115 67 -145 14 -30 39 -84 55 -120 17 -36 57 -123 90 -195 115 -247
139 -300 171 -367 l31 -68 1214 0 c667 0 1211 3 1209 8 -3 4 -66 133 -142 287
-76 154 -196 399 -268 545 -72 146 -131 268 -132 272 0 4 -6 13 -12 20 -7 6
-13 17 -13 22 0 12 -66 144 -79 160 -5 6 -10 16 -11 21 -2 11 -73 158 -295
610 -214 437 -235 477 -245 489 -4 6 -8 13 -7 16 1 3 -32 73 -73 155 -41 83
-75 152 -75 155 -1 3 -67 139 -148 302 -81 164 -147 302 -147 308 0 5 -4 10
-10 10 -5 0 -10 5 -10 10 0 15 -133 284 -142 288 -5 2 -5 8 -2 14 4 6 2 13 -3
17 -5 3 -24 38 -42 76 -19 39 -110 224 -202 412 -93 188 -169 346 -169 351 0
5 -7 15 -15 22 -8 6 -14 15 -12 18 1 4 -53 117 -120 252 -272 551 -413 840
-413 849 0 5 -7 14 -15 21 -8 6 -14 15 -13 18 1 4 -43 99 -99 212 -55 113
-176 358 -268 545 -92 187 -229 466 -305 620 -271 551 -380 775 -380 784 0 5
-7 14 -15 21 -8 6 -14 15 -13 18 3 11 -164 346 -176 354 -6 4 -8 8 -3 8 4 0
-28 69 -70 153 -42 83 -77 154 -78 157 0 3 -45 96 -100 208 l-100 202 -1180 0
-1180 0 -30 -58z m523 -982 c22 -41 60 -113 85 -160 l45 -84 -34 -66 c-19 -36
-49 -92 -67 -125 -18 -33 -52 -96 -76 -140 -23 -44 -53 -98 -65 -120 -39 -71
-129 -239 -155 -290 -14 -27 -28 -52 -31 -55 -4 -3 -12 -20 -19 -37 -8 -18
-17 -33 -22 -33 -5 0 -9 -8 -9 -19 0 -10 -8 -29 -18 -42 -10 -13 -25 -39 -33
-56 -8 -18 -17 -33 -21 -33 -5 0 -7 -3 -6 -7 3 -11 -32 -76 -46 -85 -6 -4 -7
-8 -2 -8 4 0 1 -12 -9 -26 -10 -15 -42 -75 -73 -133 -31 -58 -58 -108 -61
-111 -3 -3 -22 -36 -41 -75 -18 -38 -37 -72 -40 -75 -3 -3 -16 -27 -29 -55
-13 -27 -33 -62 -43 -77 -11 -16 -16 -28 -13 -28 3 0 -2 -12 -13 -27 -10 -16
-36 -62 -57 -103 -21 -41 -43 -78 -49 -82 -6 -4 -7 -8 -3 -8 5 0 -1 -13 -12
-29 -11 -15 -18 -31 -14 -35 3 -3 1 -6 -5 -6 -7 0 -12 -4 -12 -9 0 -5 -27 -58
-60 -118 -34 -59 -61 -109 -60 -111 0 -1 -14 -28 -32 -60 -18 -31 -33 -59 -33
-62 -1 -3 -11 -21 -23 -40 -12 -19 -25 -45 -28 -57 -4 -13 -9 -23 -14 -23 -4
0 -14 -17 -23 -37 -9 -21 -41 -83 -71 -138 -31 -55 -66 -120 -78 -145 -13 -25
-25 -47 -28 -50 -3 -3 -13 -22 -24 -42 -22 -44 -31 -48 -82 -39 -49 9 -231 7
-261 -3 -24 -8 -32 10 -14 30 5 5 39 68 76 139 37 72 71 135 75 140 9 13 62
111 130 240 29 55 57 106 63 114 6 7 12 19 13 27 1 7 12 27 23 43 12 16 21 36
21 45 0 9 4 16 8 16 4 0 15 15 23 33 29 62 84 162 92 168 5 3 8 9 8 13 -1 9
12 40 18 46 10 8 60 102 77 143 9 20 20 37 25 37 5 0 9 8 9 18 0 10 4 22 9 28
9 9 33 54 116 209 26 50 52 96 58 103 5 6 6 12 1 12 -5 0 -4 4 2 8 6 4 34 50
61 102 59 113 73 139 92 163 8 9 11 17 7 17 -4 0 1 15 12 33 11 17 35 61 54
97 20 36 47 85 60 110 14 25 49 90 78 145 64 120 93 174 150 280 24 44 56 105
72 135 16 30 34 60 40 67 6 7 7 13 2 13 -5 0 -4 4 1 8 6 4 27 39 47 77 64 124
73 140 83 147 6 4 6 8 2 8 -5 0 0 12 11 28 10 15 31 52 46 82 34 67 67 122 71
118 2 -2 21 -37 43 -78z m642 -1197 c0 -6 7 -19 16 -27 8 -9 12 -16 8 -16 -3
0 -1 -6 5 -14 7 -8 25 -38 40 -68 15 -29 48 -90 71 -134 41 -77 43 -83 27 -99
-9 -9 -17 -21 -17 -26 0 -5 -20 -45 -44 -89 -25 -44 -42 -80 -38 -80 4 0 2 -4
-4 -8 -10 -6 -38 -57 -164 -297 -26 -50 -62 -115 -80 -145 -18 -30 -33 -60
-34 -66 -1 -6 -9 -23 -19 -37 -9 -15 -17 -31 -17 -36 0 -5 -3 -11 -7 -13 -5
-1 -21 -28 -36 -58 -88 -168 -152 -288 -169 -312 -11 -16 -17 -28 -14 -28 2 0
-20 -43 -50 -96 -30 -53 -54 -99 -54 -103 0 -5 -9 -20 -21 -35 -11 -14 -17
-26 -12 -26 4 0 4 -4 -2 -8 -5 -4 -18 -23 -27 -42 -10 -19 -37 -71 -61 -115
-24 -44 -70 -129 -102 -190 -32 -60 -96 -179 -142 -263 -46 -84 -83 -157 -83
-161 0 -4 -8 -16 -17 -27 -10 -10 -20 -28 -21 -39 -2 -11 -10 -27 -18 -35 -7
-9 -20 -31 -29 -50 -8 -19 -28 -57 -45 -85 -16 -27 -36 -65 -45 -84 -8 -19
-17 -32 -19 -30 -2 2 -6 31 -9 64 -3 33 -13 89 -22 125 -20 80 -19 79 -33 113
-7 16 -12 30 -12 33 0 3 -18 42 -41 87 -29 58 -38 86 -32 97 6 8 28 49 50 90
100 184 140 258 163 305 14 28 27 52 30 55 5 5 14 21 85 155 23 44 57 107 75
140 19 33 45 83 59 110 13 28 28 52 31 55 7 6 17 30 18 44 0 5 4 12 9 15 5 3
38 60 73 126 34 66 66 125 70 130 4 6 36 64 70 130 35 66 76 141 92 168 15 26
24 47 20 47 -4 0 -2 4 3 8 6 4 20 25 32 47 54 102 84 157 133 250 29 55 68
126 87 158 18 32 33 62 33 68 0 5 5 9 12 9 6 0 9 3 5 6 -3 3 5 24 19 45 13 21
24 45 24 53 0 8 4 16 8 18 5 2 26 37 47 78 22 41 44 78 50 82 5 4 6 8 2 8 -5
0 1 13 12 29 12 16 21 35 21 43 0 16 39 -32 40 -49z"/>
</g>
</svg>
