<svg xmlns="http://www.w3.org/2000/svg" xmlns:xlink="http://www.w3.org/1999/xlink" viewBox="0 0 512 424.76"><defs><style>.cls-1{fill:url(#Degradado_sin_nombre_35);}.cls-2{fill:url(#Degradado_sin_nombre_6);}.cls-3{fill:url(#Degradado_sin_nombre_5);}.cls-4{fill:#ec902e;}.cls-5{fill:#e7ffff;}.cls-6{fill:#daf2fe;}</style><linearGradient id="Degradado_sin_nombre_35" y1="275.99" x2="512" y2="275.99" gradientUnits="userSpaceOnUse"><stop offset="0" stop-color="#c2dfea"/><stop offset="0.5" stop-color="#b5d4e4"/><stop offset="1" stop-color="#a2c2d2"/></linearGradient><linearGradient id="Degradado_sin_nombre_6" x1="256" y1="218.46" x2="256" y2="424.76" gradientUnits="userSpaceOnUse"><stop offset="0" stop-color="#c2dfea"/><stop offset="0.51" stop-color="#b5d4e4"/><stop offset="1" stop-color="#a2c2d2"/></linearGradient><linearGradient id="Degradado_sin_nombre_5" x1="256" y1="112.23" x2="256" y2="341.67" gradientUnits="userSpaceOnUse"><stop offset="0" stop-color="#a2c2d2"/><stop offset="0.5" stop-color="#b5d4e4"/><stop offset="1" stop-color="#c2dfea"/></linearGradient></defs><title>Recurso 1xxxhdpi</title><g id="Capa_2" data-name="Capa 2"><g id="Capa_1-2" data-name="Capa 1"><polygon class="cls-1" points="256 127.23 0 128.12 0 424.76 256 392.39 262.82 391.52 512 424.76 512 130.59 256 127.23"/><polygon class="cls-2" points="256 218.46 0 424.76 256 424.76 512 424.76 256 218.46"/><path class="cls-3" d="M256,112.23H0v15a104,104,0,0,0,50.42,89.41L256,341.67l205.58-125A104,104,0,0,0,512,127.23v-15Z"/><path class="cls-4" d="M289.13,0H222.87a94.87,94.87,0,0,0,0,189.74h17.64L256,201.81l44.51,34.64V189.07A94.88,94.88,0,0,0,289.13,0Z"/><path class="cls-5" d="M209.82,78.44h30v30h-30Z"/><path class="cls-6" d="M272.18,78.44h30v30h-30Z"/></g></g></svg>