<svg xmlns="http://www.w3.org/2000/svg" xmlns:xlink="http://www.w3.org/1999/xlink" viewBox="0 0 291.41 225.5"><defs><style>.cls-1{fill:url(#Degradado_sin_nombre_35);}.cls-2{fill:url(#Degradado_sin_nombre_3);}.cls-3{fill:url(#Degradado_sin_nombre_3-2);}.cls-4{fill:url(#Degradado_sin_nombre_3-3);}</style><linearGradient id="Degradado_sin_nombre_35" x1="3275.72" y1="1797.64" x2="3276.72" y2="1797.64" gradientTransform="matrix(280.88, 0, 0, -280.88, -920060.64, 505027.8)" gradientUnits="userSpaceOnUse"><stop offset="0" stop-color="#c3e0eb"/><stop offset="0.5" stop-color="#b6d5e5"/><stop offset="1" stop-color="#a2c3d2"/></linearGradient><linearGradient id="Degradado_sin_nombre_3" x1="3266.27" y1="1796.95" x2="3267.27" y2="1796.95" gradientTransform="matrix(52.03, 0, 0, -52.03, -169947.27, 93696.59)" gradientUnits="userSpaceOnUse"><stop offset="0" stop-color="#e8efed"/><stop offset="0.5" stop-color="#c9dce7"/><stop offset="1" stop-color="#47abcc"/></linearGradient><linearGradient id="Degradado_sin_nombre_3-2" x1="3266.27" y1="1796.95" x2="3267.27" y2="1796.95" gradientTransform="matrix(52.03, 0, 0, -52.03, -169878.75, 93696.59)" xlink:href="#Degradado_sin_nombre_3"/><linearGradient id="Degradado_sin_nombre_3-3" x1="3266.27" y1="1796.95" x2="3267.27" y2="1796.95" gradientTransform="matrix(52.03, 0, 0, -52.03, -169880.02, 93628.07)" xlink:href="#Degradado_sin_nombre_3"/></defs><title>Recurso 16xxxhdpi</title><g id="Capa_2" data-name="Capa 2"><g id="Capa_1-2" data-name="Capa 1"><polygon class="cls-1" points="291.41 225.5 180.62 0 178.47 0 154.47 0 145.56 0 121.56 0 10.53 206.55 34.53 206.55 132.72 23.89 137.17 32.17 74.66 148.03 98.09 149.1 149.18 54.5 154.48 64.36 78.05 206.55 102.05 206.55 166.48 86.69 230.67 225.5 291.41 225.5"/><path class="cls-2" d="M52,199.48a26,26,0,1,1-26-26A26,26,0,0,1,52,199.48Z"/><path class="cls-3" d="M120.55,199.48a26,26,0,1,1-26-26A26,26,0,0,1,120.55,199.48Z"/><circle class="cls-4" cx="93.27" cy="130.96" r="26.02"/></g></g></svg>