<svg xmlns="http://www.w3.org/2000/svg" xmlns:xlink="http://www.w3.org/1999/xlink" viewBox="0 0 446.96 512"><defs><style>.cls-1{fill:#ec902e;}.cls-2{fill:url(#Degradado_sin_nombre_35);}.cls-3{fill:#fff;}</style><linearGradient id="Degradado_sin_nombre_35" x1="150.85" y1="1543.01" x2="349.48" y2="1741.64" gradientTransform="translate(3.06 -1408.19)" gradientUnits="userSpaceOnUse"><stop offset="0" stop-color="#c2dfea"/><stop offset="0.5" stop-color="#b5d4e4"/><stop offset="1" stop-color="#a2c2d2"/></linearGradient></defs><title>Recurso 1xxxhdpi</title><g id="Capa_2" data-name="Capa 2"><g id="Capa_1-2" data-name="Capa 1"><path class="cls-1" d="M48.85,449.56,3.32,493.46A10.78,10.78,0,0,0,10.81,512H436.15a10.78,10.78,0,0,0,7.45-18.58l-46-43.93a19.49,19.49,0,0,0-13.45-5.39H62.36A19.51,19.51,0,0,0,48.85,449.56Z"/><path class="cls-2" d="M223.56,0C113.5,0,24.28,89.22,24.28,199.28c0,85.8,121.1,222.27,174.49,278.28a34.24,34.24,0,0,0,49.59,0c53.4-56,174.5-192.48,174.5-278.28C422.86,89.22,333.64,0,223.56,0Zm0,275.09a75.81,75.81,0,1,1,75.81-75.8A75.8,75.8,0,0,1,223.56,275.09Z"/><path class="cls-3" d="M223.56,275.09a75.81,75.81,0,1,1,75.81-75.8A75.8,75.8,0,0,1,223.56,275.09Z"/></g></g></svg>