<svg xmlns="http://www.w3.org/2000/svg" xmlns:xlink="http://www.w3.org/1999/xlink" viewBox="0 0 606.97 308.63"><defs><style>.cls-1{fill:url(#Degradado_sin_nombre_27);}.cls-2{fill:url(#Degradado_sin_nombre_35);}.cls-3{fill:url(#Degradado_sin_nombre_8);}.cls-4{fill:url(#Degradado_sin_nombre_8-2);}.cls-5{fill:url(#Degradado_sin_nombre_8-3);}</style><linearGradient id="Degradado_sin_nombre_27" x1="2751.59" y1="1842.03" x2="2752.59" y2="1842.03" gradientTransform="matrix(606.97, 0, 0, -606.97, -1670138.09, 1118300.16)" gradientUnits="userSpaceOnUse"><stop offset="0" stop-color="#c0dfea"/><stop offset="0.5" stop-color="#b6d5e5"/><stop offset="1" stop-color="#8abcd2"/></linearGradient><linearGradient id="Degradado_sin_nombre_35" x1="2751.59" y1="1842.03" x2="2752.59" y2="1842.03" gradientTransform="matrix(280.88, 0, 0, -280.88, -772768.38, 517494.69)" gradientUnits="userSpaceOnUse"><stop offset="0" stop-color="#c3e0eb"/><stop offset="0.5" stop-color="#b6d5e5"/><stop offset="1" stop-color="#a2c3d2"/></linearGradient><linearGradient id="Degradado_sin_nombre_8" x1="2751.59" y1="1842.03" x2="2752.59" y2="1842.03" gradientTransform="matrix(52.03, 0, 0, -52.03, -143090.86, 96042.06)" gradientUnits="userSpaceOnUse"><stop offset="0" stop-color="#e8efed"/><stop offset="0.5" stop-color="#c9dce7"/><stop offset="1" stop-color="#47abcc"/></linearGradient><linearGradient id="Degradado_sin_nombre_8-2" x1="2751.59" y1="1842.03" x2="2752.59" y2="1842.03" gradientTransform="matrix(52.03, 0, 0, -52.03, -143022.34, 96042.06)" xlink:href="#Degradado_sin_nombre_8"/><linearGradient id="Degradado_sin_nombre_8-3" x1="2751.59" y1="1842.03" x2="2752.59" y2="1842.03" gradientTransform="matrix(52.03, 0, 0, -52.03, -143023.6, 95973.54)" xlink:href="#Degradado_sin_nombre_8"/></defs><title>Recurso 14xxxhdpi</title><g id="Capa_2" data-name="Capa 2"><g id="Capa_1-2" data-name="Capa 1"><path class="cls-1" d="M19.64,214.61H43.55l29.83,94L47.89,297.3l-5.3-20.06h-22l-1.87,7.11L0,276ZM38.83,263l-7.24-27.42L24.36,263Zm73.38,30.6a23.08,23.08,0,0,1-10.86-2.42,17,17,0,0,1-7.13-7.07v18.53l-20.84,6V241l18.1-5.42v8.73a21.21,21.21,0,0,1,7.62-7.12,22.66,22.66,0,0,1,11-2.49,25.75,25.75,0,0,1,10.64,2.16,25.16,25.16,0,0,1,8.45,6.15,28.38,28.38,0,0,1,5.59,9.28,32.93,32.93,0,0,1,2,11.65,35,35,0,0,1-3.18,15.21,26.58,26.58,0,0,1-8.72,10.57A21.54,21.54,0,0,1,112.21,293.58ZM105,276a9.43,9.43,0,0,0,4.22-.94,10.27,10.27,0,0,0,3.35-2.64,12.07,12.07,0,0,0,2.19-3.89,14.45,14.45,0,0,0,.77-4.74,13.09,13.09,0,0,0-.82-4.74,10.45,10.45,0,0,0-2.36-3.64,11,11,0,0,0-3.62-2.36,12.05,12.05,0,0,0-4.61-.85,11,11,0,0,0-2.8.36,10.88,10.88,0,0,0-2.57,1,12.89,12.89,0,0,0-2.36,1.69,13.32,13.32,0,0,0-2.14,2.46v9.82a15.08,15.08,0,0,0,2.69,4.32,13.15,13.15,0,0,0,3.78,3A9.1,9.1,0,0,0,105,276Zm78.2,17.55a23.08,23.08,0,0,1-10.86-2.42,17,17,0,0,1-7.13-7.07v18.53l-20.84,6V241l18.1-5.42v8.73a21.29,21.29,0,0,1,7.62-7.12,22.7,22.7,0,0,1,11-2.49,25.78,25.78,0,0,1,10.64,2.16,25.22,25.22,0,0,1,8.44,6.15,28.38,28.38,0,0,1,5.59,9.28,32.93,32.93,0,0,1,2,11.65,35,35,0,0,1-3.18,15.21,26.5,26.5,0,0,1-8.72,10.57A21.52,21.52,0,0,1,183.17,293.58ZM175.93,276a9.4,9.4,0,0,0,4.22-.94,10.27,10.27,0,0,0,3.35-2.64,12.07,12.07,0,0,0,2.19-3.89,14.45,14.45,0,0,0,.77-4.74,12.88,12.88,0,0,0-.82-4.74,10.45,10.45,0,0,0-2.36-3.64,10.86,10.86,0,0,0-3.62-2.36,12.05,12.05,0,0,0-4.61-.85,10.89,10.89,0,0,0-2.79.36,10.78,10.78,0,0,0-2.58,1,12.89,12.89,0,0,0-2.36,1.69,13.32,13.32,0,0,0-2.14,2.46v9.82a15.3,15.3,0,0,0,2.69,4.32,13.15,13.15,0,0,0,3.78,3A9.1,9.1,0,0,0,175.93,276Zm62.52,17.55a46.17,46.17,0,0,1-14.86-2.46,33.42,33.42,0,0,1-12.34-7.19l7.13-12.83a57.73,57.73,0,0,0,10.36,5.48,24.82,24.82,0,0,0,9,2,8.26,8.26,0,0,0,3.4-.53,1.84,1.84,0,0,0,1.1-1.78,2,2,0,0,0-.77-1.62,8.88,8.88,0,0,0-2.47-1.29c-1.13-.43-2.58-.9-4.33-1.4q-6.81-2.37-11.35-4.41a17.12,17.12,0,0,1-6.8-5,12.76,12.76,0,0,1-2.25-7.91,18.23,18.23,0,0,1,3-10.29,20,20,0,0,1,8.5-7,31.35,31.35,0,0,1,13.33-2.59,39.74,39.74,0,0,1,11.68,1.81A32.08,32.08,0,0,1,262.14,243l-7.9,12.72a56.14,56.14,0,0,0-9.27-4.82,19.44,19.44,0,0,0-6.74-1.43,8.61,8.61,0,0,0-2.47.32,3.34,3.34,0,0,0-1.59,1,2.53,2.53,0,0,0-.55,1.71,2.27,2.27,0,0,0,.77,1.76,7.18,7.18,0,0,0,2.41,1.29c1.1.39,2.49.84,4.17,1.34a85.33,85.33,0,0,1,12.18,4.33,17.42,17.42,0,0,1,7,5.3,13.54,13.54,0,0,1,2.25,8.13q0,8.88-6.42,13.91T238.45,293.58Zm34.66-121,17.54,38.66v58.31a7.57,7.57,0,0,0,1.38,4.88,4.8,4.8,0,0,0,4,1.7,10.44,10.44,0,0,0,2.85-.43,12.73,12.73,0,0,0,2.85-1.21l2.64,15.35A38.6,38.6,0,0,1,296,292.6a43.3,43.3,0,0,1-8.83,1q-8.34,0-12.84-4.33t-4.49-12.34V172.77A2.28,2.28,0,0,1,273.11,172.59Zm64.49,121a36.4,36.4,0,0,1-13.6-2.37,28,28,0,0,1-9.93-6.53,27.73,27.73,0,0,1-6-9.43,30.84,30.84,0,0,1-2-11.12A31.22,31.22,0,0,1,308,253a27.12,27.12,0,0,1,6-9.44,28.46,28.46,0,0,1,9.93-6.47,40.19,40.19,0,0,1,27.25,0,28.57,28.57,0,0,1,9.87,6.47,27.29,27.29,0,0,1,6,9.44,31.22,31.22,0,0,1,2,11.16,30.84,30.84,0,0,1-2,11.12,27.84,27.84,0,0,1-15.91,16A36.26,36.26,0,0,1,337.6,293.58Zm-10.2-29.45a14.47,14.47,0,0,0,1.31,6.38,9.69,9.69,0,0,0,3.62,4.1,10.47,10.47,0,0,0,10.53,0,9.62,9.62,0,0,0,3.62-4.1,16.05,16.05,0,0,0,0-12.75,9.62,9.62,0,0,0-3.62-4.1,9.83,9.83,0,0,0-14.15,4.1A14.45,14.45,0,0,0,327.4,264.13Zm88,29.45a23.08,23.08,0,0,1-10.86-2.42,17,17,0,0,1-7.12-7.07v18.53l-20.84,6V241l18.09-5.42v8.73a21.24,21.24,0,0,1,7.63-7.12,22.63,22.63,0,0,1,11-2.49,25.78,25.78,0,0,1,10.64,2.16,25.22,25.22,0,0,1,8.44,6.15,28.4,28.4,0,0,1,5.6,9.28,33.16,33.16,0,0,1,2,11.65,35,35,0,0,1-3.18,15.21A26.5,26.5,0,0,1,428,289.7,21.52,21.52,0,0,1,415.36,293.58ZM408.12,276a9.44,9.44,0,0,0,4.23-.94,10.34,10.34,0,0,0,3.34-2.64,12.28,12.28,0,0,0,2.2-3.89,14.45,14.45,0,0,0,.76-4.74,12.88,12.88,0,0,0-.82-4.74,10.32,10.32,0,0,0-2.36-3.64,10.86,10.86,0,0,0-3.62-2.36,12,12,0,0,0-4.6-.85,11.14,11.14,0,0,0-5.38,1.39,13.09,13.09,0,0,0-4.49,4.15v9.82a15,15,0,0,0,2.68,4.32,13.19,13.19,0,0,0,3.79,3A9,9,0,0,0,408.12,276Zm67.79,17.55a36.65,36.65,0,0,1-13.49-2.32,28.58,28.58,0,0,1-9.93-6.32,27.09,27.09,0,0,1-6.09-9.18,29,29,0,0,1-2.08-10.91,31.55,31.55,0,0,1,3.62-15,27.65,27.65,0,0,1,10.64-11q7-4.14,17.33-4.15t17.32,4.11a27.65,27.65,0,0,1,10.64,10.8,30.14,30.14,0,0,1,3.62,14.59c0,1.08-.05,2.18-.16,3.29s-.24,2.11-.39,3H466.47a8.42,8.42,0,0,0,1.7,4.74,8.53,8.53,0,0,0,3.73,2.65,13.2,13.2,0,0,0,4.66.84,13.88,13.88,0,0,0,6.42-1.54,7.71,7.71,0,0,0,4-4.28l17.66,5a25.7,25.7,0,0,1-6.41,8.12,31.17,31.17,0,0,1-9.71,5.53A36.66,36.66,0,0,1,475.91,293.58ZM466,257.94h19.09a10.09,10.09,0,0,0-1.59-4.53,8.67,8.67,0,0,0-3.29-2.89,11.08,11.08,0,0,0-9.33,0,8.67,8.67,0,0,0-3.29,2.89A10.09,10.09,0,0,0,466,257.94Zm87.42-5.38a42.46,42.46,0,0,0-11,1.32,13.38,13.38,0,0,0-7.35,4.39v34.22H514.29V241.27l19.09-5.71v10.2a24.08,24.08,0,0,1,7.68-8.94,17.1,17.1,0,0,1,9.76-3.12h1.7a4,4,0,0,1,.93.11Zm29.61,41a46.21,46.21,0,0,1-14.86-2.46,33.42,33.42,0,0,1-12.34-7.19L563,271.1a58.07,58.07,0,0,0,10.36,5.48,24.86,24.86,0,0,0,9,2,8.26,8.26,0,0,0,3.4-.53,1.84,1.84,0,0,0,1.1-1.78,2,2,0,0,0-.77-1.62,8.73,8.73,0,0,0-2.47-1.29c-1.13-.43-2.57-.9-4.33-1.4q-6.8-2.37-11.35-4.41a17.19,17.19,0,0,1-6.8-5,12.76,12.76,0,0,1-2.25-7.91,18.23,18.23,0,0,1,3-10.29,20.08,20.08,0,0,1,8.5-7,31.38,31.38,0,0,1,13.33-2.59,39.69,39.69,0,0,1,11.68,1.81A32.08,32.08,0,0,1,606.75,243l-7.9,12.72a56.1,56.1,0,0,0-9.26-4.82,19.49,19.49,0,0,0-6.75-1.43,8.61,8.61,0,0,0-2.47.32,3.39,3.39,0,0,0-1.59,1,2.58,2.58,0,0,0-.55,1.71,2.27,2.27,0,0,0,.77,1.76,7.14,7.14,0,0,0,2.42,1.29c1.09.39,2.48.84,4.16,1.34a84.89,84.89,0,0,1,12.18,4.33,17.42,17.42,0,0,1,7,5.3,13.54,13.54,0,0,1,2.25,8.13q0,8.88-6.41,13.91T583.06,293.58Z"/><polygon class="cls-2" points="368.49 225.5 257.71 0 255.56 0 231.55 0 222.65 0 198.65 0 87.62 206.55 111.62 206.55 209.81 23.89 214.26 32.17 151.75 148.03 175.17 149.1 226.26 54.5 231.56 64.36 155.13 206.55 179.14 206.55 243.57 86.69 307.75 225.5 368.49 225.5"/><path class="cls-3" d="M129.12,199.48a26,26,0,1,1-26-26A26,26,0,0,1,129.12,199.48Z"/><path class="cls-4" d="M197.64,199.48a26,26,0,1,1-26-26A26,26,0,0,1,197.64,199.48Z"/><circle class="cls-5" cx="170.36" cy="130.96" r="26.02"/></g></g></svg>