<svg xmlns="http://www.w3.org/2000/svg" xmlns:xlink="http://www.w3.org/1999/xlink" viewBox="0 0 511.99 512"><defs><style>.cls-1{fill:#ec902e;}.cls-2{fill:#fff;}.cls-3{fill:url(#Degradado_sin_nombre_35);}</style><linearGradient id="Degradado_sin_nombre_35" y1="275.19" x2="472.9" y2="275.19" gradientUnits="userSpaceOnUse"><stop offset="0" stop-color="#c2dfea"/><stop offset="0.5" stop-color="#b5d4e4"/><stop offset="1" stop-color="#a2c2d2"/></linearGradient></defs><title>Recurso 1xxxhdpi</title><g id="Capa_2" data-name="Capa 2"><g id="Capa_1-2" data-name="Capa 1"><path class="cls-1" d="M436,0H316a75.1,75.1,0,0,0-75,75v61a75.14,75.14,0,0,0,60,73.51V241a15,15,0,0,0,24,12l56-42h55c41.47,0,76-33.54,76-75V75c0-41.47-34.54-75-76-75Z"/><path class="cls-2" d="M316,91a15,15,0,1,0,15,15A15,15,0,0,0,316,91Zm60,0a15,15,0,1,0,15,15A15,15,0,0,0,376,91Zm60,0a15,15,0,1,0,15,15A15,15,0,0,0,436,91Z"/><path class="cls-3" d="M466.64,402.86,360.56,326.79a15,15,0,0,0-16.69-.54L284.1,363.6c-3.21.62-17.18-2-44.2-21.56a366.66,366.66,0,0,1-65.11-61.58c-26.76-32.77-28.75-49.29-27.29-53L185,167.41a15,15,0,0,0-.53-16.69L108.42,44.64a15,15,0,0,0-22.8-1.86L30.89,97.51c-31,31-39.64,78.21-21.48,117.48a601,601,0,0,0,93.7,144.19,568.75,568.75,0,0,0,194.6,144.07c38.38,17.35,84.81,8.39,115.53-22.33l55.26-55.26a15,15,0,0,0-1.86-22.8Z"/></g></g></svg>